<svg height="512" viewBox="0 0 512 512" width="512" xmlns="http://www.w3.org/2000/svg"><g id="Smart_Farm-4" data-name="Smart Farm"><g id="Filled"><path d="m120 40h272v368h-272z" fill="#b2ebf2"/><path d="m120 488a16 16 0 0 0 16 16h240a16 16 0 0 0 16-16v-80h-272z" fill="#ededed"/><path d="m240 440h32v32h-32z" fill="#90a4ae"/><path d="m392 24a16 16 0 0 0 -16-16h-240a16 16 0 0 0 -16 16v16h272z" fill="#ededed"/><path d="m162.833 373.667a268.058 268.058 0 0 1 -42.833-3.455v37.788h272v-164.44a266.678 266.678 0 0 1 -229.167 130.107z" fill="#80deea"/><circle cx="156" cy="92" fill="#e0f7fa" r="20"/><circle cx="196" cy="116" fill="#e0f7fa" r="12"/><path d="m282.667 368c-11.706 0-20.939-6.093-26.667-11.263-5.727 5.17-14.96 11.263-26.667 11.263-42.88 0-61.333-78.359-61.333-103.247 0-49.063 58.893-59.595 88-35.084 28.854-24.3 88-14.241 88 35.084 0 26.036-19.151 103.247-61.333 103.247z" fill="#ea7432"/><path d="m331.382 231.765a140.026 140.026 0 0 1 -143.9 103.97c20.446 37.653 48.441 39.125 68.517 21 5.728 5.17 14.961 11.263 26.667 11.263 42.183.002 61.334-77.209 61.334-103.245 0-14.225-4.925-25.177-12.618-32.988z" fill="#e2601e"/><g fill="#fa9664"><circle cx="212" cy="252" r="20"/><circle cx="252" cy="276" r="12"/></g></g><g id="Outline"><path d="m376 0h-240a24.027 24.027 0 0 0 -24 24v464a24.027 24.027 0 0 0 24 24h240a24.027 24.027 0 0 0 24-24v-464a24.027 24.027 0 0 0 -24-24zm8 488a8.009 8.009 0 0 1 -8 8h-240a8.009 8.009 0 0 1 -8-8v-72h256zm0-456h-96a8 8 0 0 0 0 16h96v352h-256v-352h96a8 8 0 0 0 0-16h-96v-8a8.009 8.009 0 0 1 8-8h240a8.009 8.009 0 0 1 8 8z"/><path d="m240 480h32a8 8 0 0 0 8-8v-32a8 8 0 0 0 -8-8h-32a8 8 0 0 0 -8 8v32a8 8 0 0 0 8 8zm8-32h16v16h-16z"/><circle cx="256" cy="40" r="8"/><path d="m262.77 224.86c-4.512-25.86-21.283-40.86-46.77-40.86a8 8 0 0 0 0 16c18.466 0 26.739 10.549 30.054 23.093-29.1-14.809-78.054-3.486-78.054 41.66 0 24.888 18.453 103.247 61.333 103.247 11.707 0 20.94-6.093 26.667-11.263 5.728 5.17 14.961 11.263 26.667 11.263 41.224 0 61.333-75.357 61.333-103.247 0-45.918-51.55-57.653-81.23-39.893zm19.897 127.14c-11.565 0-20.086-11.545-20.148-11.63a8.028 8.028 0 0 0 -13.015-.032c-.085.117-8.6 11.662-20.171 11.662-26.694 0-45.333-62.382-45.333-87.247 0-28.6 25.487-31.686 36.444-31.686 11.57 0 22.574 4.869 29.434 13.024a8 8 0 0 0 12.244 0c6.86-8.155 17.863-13.024 29.434-13.024 10.958 0 36.444 3.087 36.444 31.686 0 22.43-17.809 87.247-45.333 87.247z"/><path d="m163.053 112.68a8 8 0 1 0 9.894 12.574c49.676-39.089 116.43-39.089 166.106 0a8 8 0 1 0 9.894-12.574c-54.857-43.165-129.939-44.029-185.894 0z"/><path d="m318.528 142.941a8 8 0 0 0 -1.9-11.152c-37.4-26.484-83.853-26.484-121.248 0a8 8 0 0 0 9.248 13.057c31.69-22.444 71.063-22.444 102.752 0a8 8 0 0 0 11.148-1.905z"/><path d="m227.125 153.657a8 8 0 1 0 9.75 12.686c12.512-9.617 25.739-9.617 38.25 0a8 8 0 0 0 9.75-12.686c-18.348-14.104-39.399-14.105-57.75 0z"/></g></g></svg>